<?xml version="1.0" encoding="UTF-8" standalone="no"?>
<svg
   xmlns:dc="http://purl.org/dc/elements/1.1/"
   xmlns:cc="http://creativecommons.org/ns#"
   xmlns:rdf="http://www.w3.org/1999/02/22-rdf-syntax-ns#"
   xmlns:svg="http://www.w3.org/2000/svg"
   xmlns="http://www.w3.org/2000/svg"
   xml:space="preserve"
   viewBox="0 0 64.000002 64.000002"
   height="64"
   width="64"
   y="0px"
   x="0px"
   id="Capa_1"
   version="1.1"><metadata
   id="metadata41"><rdf:RDF><cc:Work
       rdf:about=""><dc:format>image/svg+xml</dc:format><dc:type
         rdf:resource="http://purl.org/dc/dcmitype/StillImage" /><dc:title></dc:title></cc:Work></rdf:RDF></metadata><defs
   id="defs39"><radialGradient
   id="radialGradient1035"
   cx="43.220501"
   cy="43.222099"
   r="42.798401"
   gradientTransform="matrix(0.9977,0,0,0.9977,-91.724387,-7.2087489)"
   gradientUnits="userSpaceOnUse"><stop
     offset="0"
     style="stop-color:#a13f3f;stop-opacity:1"
     id="stop1031" /><stop
     offset="1"
     style="stop-color:#cc7290;stop-opacity:1"
     id="stop1033" /></radialGradient><radialGradient
   id="radialGradient1029"
   cx="43.220501"
   cy="43.222099"
   r="42.798401"
   gradientTransform="matrix(0.9977,0,0,0.9977,-91.724387,-7.2087489)"
   gradientUnits="userSpaceOnUse"><stop
     offset="0"
     style="stop-color:#ff6044;stop-opacity:1"
     id="stop1025" /><stop
     offset="1"
     style="stop-color:#e60000;stop-opacity:1"
     id="stop1027" /></radialGradient><radialGradient
   gradientUnits="userSpaceOnUse"
   gradientTransform="matrix(0.9977,0,0,0.9977,-0.1211,-0.1227)"
   r="42.798401"
   cy="43.222099"
   cx="43.220501"
   id="SVGID_1_"
   fx="43.220501"
   fy="43.222099"
   fr="0"
   spreadMethod="pad">
		<stop
   id="stop3"
   style="stop-color:#6b6b6b;stop-opacity:1"
   offset="0" />
		<stop
   id="stop5"
   style="stop-color:#363636;stop-opacity:1"
   offset="1" />
	</radialGradient><radialGradient
   gradientUnits="userSpaceOnUse"
   gradientTransform="matrix(0.9977,0,0,0.9977,-91.724387,-7.2087489)"
   r="42.798401"
   cy="43.222099"
   cx="43.220501"
   id="SVGID_1_-6"><stop
     id="stop3-7"
     style="stop-color:#a13f3f;stop-opacity:1"
     offset="0" /><stop
     id="stop5-5"
     style="stop-color:#d4a1a1;stop-opacity:1"
     offset="1" /></radialGradient><radialGradient
   gradientUnits="userSpaceOnUse"
   gradientTransform="matrix(0.62252974,0,0,0.62252974,26.221264,3.9880502)"
   r="30.3622"
   cy="62.667301"
   cx="26.9526"
   id="SVGID_3_"><stop
     id="stop17"
     style="stop-color:#4EB4BA"
     offset="0" /><stop
     id="stop19"
     style="stop-color:#007DA4"
     offset="1" /></radialGradient>
</defs>
















<g
   transform="translate(2.6647775,-0.970443)"
   style="fill:#ffffff"
   id="g1076"><g
     id="g6"
     transform="matrix(0.07765254,-0.04483272,0.04483272,0.07765254,9.3484014,30.122517)"
     style="fill:#ffffff;stroke:none">
</g><g
     id="g8"
     transform="matrix(0.07765254,-0.04483272,0.04483272,0.07765254,9.3484014,30.122517)"
     style="fill:#ffffff;stroke:none">
</g><g
     id="g10"
     transform="matrix(0.07765254,-0.04483272,0.04483272,0.07765254,9.3484014,30.122517)"
     style="fill:#ffffff;stroke:none">
</g><g
     id="g12"
     transform="matrix(0.07765254,-0.04483272,0.04483272,0.07765254,9.3484014,30.122517)"
     style="fill:#ffffff;stroke:none">
</g><g
     id="g14"
     transform="matrix(0.07765254,-0.04483272,0.04483272,0.07765254,9.3484014,30.122517)"
     style="fill:#ffffff;stroke:none">
</g><g
     id="g16"
     transform="matrix(0.07765254,-0.04483272,0.04483272,0.07765254,9.3484014,30.122517)"
     style="fill:#ffffff;stroke:none">
</g><g
     id="g18"
     transform="matrix(0.07765254,-0.04483272,0.04483272,0.07765254,9.3484014,30.122517)"
     style="fill:#ffffff;stroke:none">
</g><g
     id="g20"
     transform="matrix(0.07765254,-0.04483272,0.04483272,0.07765254,9.3484014,30.122517)"
     style="fill:#ffffff;stroke:none">
</g><g
     id="g22"
     transform="matrix(0.07765254,-0.04483272,0.04483272,0.07765254,9.3484014,30.122517)"
     style="fill:#ffffff;stroke:none">
</g><g
     id="g24"
     transform="matrix(0.07765254,-0.04483272,0.04483272,0.07765254,9.3484014,30.122517)"
     style="fill:#ffffff;stroke:none">
</g><g
     id="g26"
     transform="matrix(0.07765254,-0.04483272,0.04483272,0.07765254,9.3484014,30.122517)"
     style="fill:#ffffff;stroke:none">
</g><g
     id="g28"
     transform="matrix(0.07765254,-0.04483272,0.04483272,0.07765254,9.3484014,30.122517)"
     style="fill:#ffffff;stroke:none">
</g><g
     id="g30"
     transform="matrix(0.07765254,-0.04483272,0.04483272,0.07765254,9.3484014,30.122517)"
     style="fill:#ffffff;stroke:none">
</g><g
     id="g32"
     transform="matrix(0.07765254,-0.04483272,0.04483272,0.07765254,9.3484014,30.122517)"
     style="fill:#ffffff;stroke:none">
</g><g
     id="g34"
     transform="matrix(0.07765254,-0.04483272,0.04483272,0.07765254,9.3484014,30.122517)"
     style="fill:#ffffff;stroke:none">
</g><path
     d="m 47.376081,15.290249 c 0,0.04437 -0.164501,0.08037 -0.367232,0.08037 H 35.348561 c -0.202924,0 -0.367232,-0.036 -0.367232,-0.08037 v -2.551485 c 0,-0.04436 0.164501,-0.08037 0.367232,-0.08037 h 11.660288 c 0.202924,0 0.367232,0.036 0.367232,0.08037 z"
     id="path10-5"
     style="fill:#ffffff;fill-opacity:1;stroke:none;stroke-width:0.09805019" /><path
     d="m 47.376081,24.329396 c 0,0.196739 -0.03963,0.356382 -0.08848,0.356382 h -2.809328 c -0.04889,0 -0.08848,-0.159643 -0.08848,-0.356382 V 13.014782 c 0,-0.19674 0.03963,-0.356384 0.08848,-0.356384 h 2.809328 c 0.04889,0 0.08848,0.159644 0.08848,0.356384 z"
     id="path10-6"
     style="fill:#ffffff;fill-opacity:1;stroke:none;stroke-width:0.10134874" /><path
     d="m 13.926215,12.658399 c 0.04437,0 0.08037,0.164501 0.08037,0.367232 v 11.660288 c 0,0.202924 -0.036,0.367232 -0.08037,0.367232 H 11.37473 c -0.04436,0 -0.08037,-0.164501 -0.08037,-0.367232 V 13.025631 c 0,-0.202924 0.036,-0.367232 0.08037,-0.367232 z"
     id="path10-5-7"
     style="fill:#ffffff;fill-opacity:1;stroke:none;stroke-width:0.09805019" /><path
     d="m 22.965362,12.658399 c 0.196739,0 0.356382,0.03963 0.356382,0.08848 v 2.809328 c 0,0.04889 -0.159643,0.08848 -0.356382,0.08848 H 11.650748 c -0.19674,0 -0.356384,-0.03963 -0.356384,-0.08848 v -2.809328 c 0,-0.04889 0.159644,-0.08848 0.356384,-0.08848 z"
     id="path10-6-0"
     style="fill:#ffffff;fill-opacity:1;stroke:none;stroke-width:0.10134874" /><path
     d="m 11.294364,50.650637 c 0,-0.04437 0.164501,-0.08037 0.367232,-0.08037 h 11.660288 c 0.202924,0 0.367232,0.036 0.367232,0.08037 v 2.551485 c 0,0.04436 -0.164501,0.08037 -0.367232,0.08037 H 11.661596 c -0.202924,0 -0.367232,-0.036 -0.367232,-0.08037 z"
     id="path10-5-7-3"
     style="fill:#ffffff;fill-opacity:1;stroke:none;stroke-width:0.09805019" /><path
     d="m 11.294364,41.61149 c 0,-0.196739 0.03963,-0.356382 0.08848,-0.356382 h 2.809328 c 0.04889,0 0.08848,0.159643 0.08848,0.356382 v 11.314614 c 0,0.19674 -0.03963,0.356384 -0.08848,0.356384 h -2.809328 c -0.04889,0 -0.08848,-0.159644 -0.08848,-0.356384 z"
     id="path10-6-0-6"
     style="fill:#ffffff;fill-opacity:1;stroke:none;stroke-width:0.10134874" /><path
     d="m 44.74423,53.282488 c -0.04437,0 -0.08037,-0.164501 -0.08037,-0.367232 V 41.254968 c 0,-0.202924 0.036,-0.367232 0.08037,-0.367232 h 2.551485 c 0.04436,0 0.08037,0.164501 0.08037,0.367232 v 11.660288 c 0,0.202924 -0.036,0.367232 -0.08037,0.367232 z"
     id="path10-5-7-6"
     style="fill:#ffffff;fill-opacity:1;stroke:none;stroke-width:0.09805019" /><path
     d="m 35.705083,53.282488 c -0.196739,0 -0.356382,-0.03963 -0.356382,-0.08848 V 50.38468 c 0,-0.04889 0.159643,-0.08848 0.356382,-0.08848 h 11.314614 c 0.19674,0 0.356384,0.03963 0.356384,0.08848 v 2.809328 c 0,0.04889 -0.159644,0.08848 -0.356384,0.08848 z"
     id="path10-6-0-2"
     style="fill:#ffffff;fill-opacity:1;stroke:none;stroke-width:0.10134874" /></g></svg>